ffmpeg started on 2025-05-12 at 21:45:31
Report written to "D:\Convert\FFMetrics\reports\ssim_report-6.txt"
Log level: 32
Command line:
ffmpeg -hide_banner -nostdin -i "G:\\\xc0\xed\xe8\xec\xe5\\\xce\xed\xe3\xee\xe8\xed\xe3\xe8\\!_35_\xcb\xe5\xf2\xee_2024\\DreamCast-1\\\xd1\xeb\xe8\xf8\xea\xee\xec \xec\xed\xee\xe3\xee \xef\xf0\xee\xe8\xe3\xf0\xe0\xe2\xf8\xe8\xf5 \xe3\xe5\xf0\xee\xe8\xed\xfc!\\[DC] Make Heroine ga Oosugiru - 04_Telegram_HEVC.mkv" -i "G:\\\xc0\xed\xe8\xec\xe5\\\xce\xed\xe3\xee\xe8\xed\xe3\xe8\\!_35_\xcb\xe5\xf2\xee_2024\\DreamCast-1\\\xd1\xeb\xe8\xf8\xea\xee\xec \xec\xed\xee\xe3\xee \xef\xf0\xee\xe8\xe3\xf0\xe0\xe2\xf8\xe8\xf5 \xe3\xe5\xf0\xee\xe8\xed\xfc!\\[DC] Make Heroine ga Oosugiru - 04_Telegram.mp4" -lavfi "[0:v]settb=AVTB,setpts=PTS-STARTPTS,format=pix_fmts=yuv420p10,fps=24000/1001,scale=1920:1080:flags=bicubic[main];[1:v]settb=AVTB,setpts=PTS-STARTPTS,format=pix_fmts=yuv420p,fps=24000/1001,scale=1920:1080:flags=bicubic[ref];[main][ref]ssim=eof_action=endall:stats_file='D\\:/Convert/FFMetrics/logs/ssim_logfile-6.txt'" -f null -
Input #0, matroska,webm, from 'G:\Аниме\Онгоинги\!_35_Лето_2024\DreamCast-1\Слишком много проигравших героинь!\[DC] Make Heroine ga Oosugiru - 04_Telegram_HEVC.mkv':
  Metadata:
    COMPATIBLE_BRANDS: isomiso2avc1mp41
    MAJOR_BRAND     : isom
    MINOR_VERSION   : 512
    ENCODER         : Lavf61.7.100
  Duration: 00:25:07.67, start: -0.021000, bitrate: 1039 kb/s
  Stream #0:0: Video: hevc (Main 10), yuv420p10le(tv, bt709, progressive), 1920x1080 [SAR 1:1 DAR 16:9], 23.98 fps, 23.98 tbr, 1k tbn (default)
      Metadata:
        HANDLER_NAME    : VideoHandler
        VENDOR_ID       : [0][0][0][0]
        ENCODER         : Lavc61.19.100 libx265
        BPS             : 842527
        DURATION        : 00:25:06.504708333
        NUMBER_OF_FRAMES: 36120
        NUMBER_OF_BYTES : 158658840
        _STATISTICS_WRITING_APP: mkvpropedit v66.0.0 ('Josie') 64-bit
        _STATISTICS_WRITING_DATE_UTC: 2025-05-11 10:08:19
        _STATISTICS_TAGS: BPS DURATION NUMBER_OF_FRAMES NUMBER_OF_BYTES
  Stream #0:1: Audio: aac (LC), 48000 Hz, stereo, fltp (default)
      Metadata:
        HANDLER_NAME    : SoundHandler
        VENDOR_ID       : [0][0][0][0]
        ENCODER         : Lavc61.19.100 aac
        BPS             : 193161
        DURATION        : 00:25:07.669000000
        NUMBER_OF_FRAMES: 70673
        NUMBER_OF_BYTES : 36402977
        _STATISTICS_WRITING_APP: mkvpropedit v66.0.0 ('Josie') 64-bit
        _STATISTICS_WRITING_DATE_UTC: 2025-05-11 10:08:19
        _STATISTICS_TAGS: BPS DURATION NUMBER_OF_FRAMES NUMBER_OF_BYTES
Input #1, mov,mp4,m4a,3gp,3g2,mj2, from 'G:\Аниме\Онгоинги\!_35_Лето_2024\DreamCast-1\Слишком много проигравших героинь!\[DC] Make Heroine ga Oosugiru - 04_Telegram.mp4':
  Metadata:
    major_brand     : isom
    minor_version   : 512
    compatible_brands: isomiso2avc1mp41
    encoder         : Lavf61.1.100
  Duration: 00:25:07.62, start: 0.000000, bitrate: 3720 kb/s
  Stream #1:0[0x1](und): Video: h264 (High) (avc1 / 0x31637661), yuv420p(tv, bt709, progressive), 1920x1080 [SAR 1:1 DAR 16:9], 3574 kb/s, 23.98 fps, 23.98 tbr, 24k tbn (default)
      Metadata:
        handler_name    : VideoHandler
        vendor_id       : [0][0][0][0]
        encoder         : Lavc61.3.100 h264_qsv
  Stream #1:1[0x2](und): Audio: aac (HE-AACv2) (mp4a / 0x6134706D), 48000 Hz, stereo, fltp, 144 kb/s (default)
      Metadata:
        handler_name    : SoundHandler
        vendor_id       : [0][0][0][0]
Stream mapping:
  Stream #0:0 (hevc) -> settb:default
  Stream #1:0 (h264) -> settb:default
  ssim:default -> Stream #0:0 (wrapped_avframe)
  Stream #0:1 -> #0:1 (aac (native) -> pcm_s16le (native))
Output #0, null, to 'pipe:':
  Metadata:
    COMPATIBLE_BRANDS: isomiso2avc1mp41
    MAJOR_BRAND     : isom
    MINOR_VERSION   : 512
    encoder         : Lavf61.7.100
  Stream #0:0: Video: wrapped_avframe, yuv420p10le(tv, bt709, progressive), 1920x1080 [SAR 1:1 DAR 16:9], q=2-31, 200 kb/s, 23.98 fps, 23.98 tbn
      Metadata:
        encoder         : Lavc61.19.100 wrapped_avframe
  Stream #0:1: Audio: pcm_s16le, 48000 Hz, stereo, s16, 1536 kb/s (default)
      Metadata:
        HANDLER_NAME    : SoundHandler
        VENDOR_ID       : [0][0][0][0]
        _STATISTICS_TAGS: BPS DURATION NUMBER_OF_FRAMES NUMBER_OF_BYTES
        BPS             : 193161
        DURATION        : 00:25:07.669000000
        NUMBER_OF_FRAMES: 70673
        NUMBER_OF_BYTES : 36402977
        _STATISTICS_WRITING_APP: mkvpropedit v66.0.0 ('Josie') 64-bit
        _STATISTICS_WRITING_DATE_UTC: 2025-05-11 10:08:19
        encoder         : Lavc61.19.100 pcm_s16le
frame=  165 fps=0.0 q=-0.0 size=N/A time=00:00:06.88 bitrate=N/A speed=13.2x    frame=  390 fps=380 q=-0.0 size=N/A time=00:00:16.26 bitrate=N/A speed=15.9x    frame=  652 fps=421 q=-0.0 size=N/A time=00:00:27.19 bitrate=N/A speed=17.6x    frame=  915 fps=442 q=-0.0 size=N/A time=00:00:38.16 bitrate=N/A speed=18.4x    frame= 1171 fps=455 q=-0.0 size=N/A time=00:00:48.84 bitrate=N/A speed=  19x    frame= 1410 fps=455 q=-0.0 size=N/A time=00:00:58.80 bitrate=N/A speed=  19x    frame= 1594 fps=442 q=-0.0 size=N/A time=00:01:06.48 bitrate=N/A speed=18.4x    frame= 1754 fps=425 q=-0.0 size=N/A time=00:01:13.15 bitrate=N/A speed=17.7x    frame= 1925 fps=414 q=-0.0 size=N/A time=00:01:20.28 bitrate=N/A speed=17.3x    frame= 2091 fps=406 q=-0.0 size=N/A time=00:01:27.21 bitrate=N/A speed=16.9x    frame= 2246 fps=396 q=-0.0 size=N/A time=00:01:33.67 bitrate=N/A speed=16.5x    frame= 2409 fps=389 q=-0.0 size=N/A time=00:01:40.47 bitrate=N/A speed=16.2x    frame= 2577 fps=384 q=-0.0 size=N/A time=00:01:47.48 bitrate=N/A speed=  16x    frame= 2735 fps=379 q=-0.0 size=N/A time=00:01:54.07 bitrate=N/A speed=15.8x    frame= 2863 fps=370 q=-0.0 size=N/A time=00:01:59.41 bitrate=N/A speed=15.4x    frame= 3036 fps=368 q=-0.0 size=N/A time=00:02:06.62 bitrate=N/A speed=15.3x    frame= 3186 fps=363 q=-0.0 size=N/A time=00:02:12.88 bitrate=N/A speed=15.1x    frame= 3362 fps=362 q=-0.0 size=N/A time=00:02:20.22 bitrate=N/A speed=15.1x    frame= 3555 fps=363 q=-0.0 size=N/A time=00:02:28.27 bitrate=N/A speed=15.1x    frame= 3764 fps=365 q=-0.0 size=N/A time=00:02:36.99 bitrate=N/A speed=15.2x    frame= 4004 fps=369 q=-0.0 size=N/A time=00:02:47.00 bitrate=N/A speed=15.4x    frame= 4265 fps=375 q=-0.0 size=N/A time=00:02:57.88 bitrate=N/A speed=15.7x    frame= 4525 fps=381 q=-0.0 size=N/A time=00:03:08.73 bitrate=N/A speed=15.9x    frame= 4785 fps=386 q=-0.0 size=N/A time=00:03:19.57 bitrate=N/A speed=16.1x    frame= 5050 fps=391 q=-0.0 size=N/A time=00:03:30.62 bitrate=N/A speed=16.3x    frame= 5318 fps=396 q=-0.0 size=N/A time=00:03:41.80 bitrate=N/A speed=16.5x    frame= 5582 fps=401 q=-0.0 size=N/A time=00:03:52.81 bitrate=N/A speed=16.7x    frame= 5837 fps=404 q=-0.0 size=N/A time=00:04:03.45 bitrate=N/A speed=16.8x    frame= 6105 fps=408 q=-0.0 size=N/A time=00:04:14.62 bitrate=N/A speed=  17x    frame= 6367 fps=411 q=-0.0 size=N/A time=00:04:25.55 bitrate=N/A speed=17.2x    frame= 6632 fps=414 q=-0.0 size=N/A time=00:04:36.60 bitrate=N/A speed=17.3x    frame= 6879 fps=417 q=-0.0 size=N/A time=00:04:46.91 bitrate=N/A speed=17.4x    frame= 7129 fps=418 q=-0.0 size=N/A time=00:04:57.33 bitrate=N/A speed=17.5x    frame= 7371 fps=420 q=-0.0 size=N/A time=00:05:07.43 bitrate=N/A speed=17.5x    frame= 7589 fps=420 q=-0.0 size=N/A time=00:05:16.52 bitrate=N/A speed=17.5x    frame= 7847 fps=422 q=-0.0 size=N/A time=00:05:27.28 bitrate=N/A speed=17.6x    frame= 8096 fps=424 q=-0.0 size=N/A time=00:05:37.67 bitrate=N/A speed=17.7x    frame= 8338 fps=425 q=-0.0 size=N/A time=00:05:47.76 bitrate=N/A speed=17.7x    frame= 8583 fps=426 q=-0.0 size=N/A time=00:05:57.98 bitrate=N/A speed=17.8x    frame= 8841 fps=428 q=-0.0 size=N/A time=00:06:08.74 bitrate=N/A speed=17.9x    frame= 9107 fps=430 q=-0.0 size=N/A time=00:06:19.83 bitrate=N/A speed=17.9x    frame= 9367 fps=432 q=-0.0 size=N/A time=00:06:30.68 bitrate=N/A speed=  18x    frame= 9618 fps=434 q=-0.0 size=N/A time=00:06:41.15 bitrate=N/A speed=18.1x    frame= 9882 fps=435 q=-0.0 size=N/A time=00:06:52.16 bitrate=N/A speed=18.2x    frame=10066 fps=433 q=-0.0 size=N/A time=00:06:59.83 bitrate=N/A speed=18.1x    frame=10333 fps=435 q=-0.0 size=N/A time=00:07:10.97 bitrate=N/A speed=18.1x    frame=10583 fps=436 q=-0.0 size=N/A time=00:07:21.39 bitrate=N/A speed=18.2x    frame=10824 fps=437 q=-0.0 size=N/A time=00:07:31.45 bitrate=N/A speed=18.2x    frame=11065 fps=437 q=-0.0 size=N/A time=00:07:41.50 bitrate=N/A speed=18.2x    frame=11332 fps=439 q=-0.0 size=N/A time=00:07:52.63 bitrate=N/A speed=18.3x    frame=11586 fps=440 q=-0.0 size=N/A time=00:08:03.23 bitrate=N/A speed=18.4x    frame=11845 fps=441 q=-0.0 size=N/A time=00:08:14.03 bitrate=N/A speed=18.4x    frame=12106 fps=442 q=-0.0 size=N/A time=00:08:24.92 bitrate=N/A speed=18.4x    frame=12365 fps=443 q=-0.0 size=N/A time=00:08:35.72 bitrate=N/A speed=18.5x    frame=12612 fps=444 q=-0.0 size=N/A time=00:08:46.02 bitrate=N/A speed=18.5x    frame=12864 fps=445 q=-0.0 size=N/A time=00:08:56.53 bitrate=N/A speed=18.6x    frame=13085 fps=444 q=-0.0 size=N/A time=00:09:05.75 bitrate=N/A speed=18.5x    frame=13320 fps=445 q=-0.0 size=N/A time=00:09:15.55 bitrate=N/A speed=18.6x    frame=13590 fps=446 q=-0.0 size=N/A time=00:09:26.81 bitrate=N/A speed=18.6x    frame=13846 fps=447 q=-0.0 size=N/A time=00:09:37.49 bitrate=N/A speed=18.6x    frame=14091 fps=447 q=-0.0 size=N/A time=00:09:47.71 bitrate=N/A speed=18.6x    frame=14347 fps=448 q=-0.0 size=N/A time=00:09:58.38 bitrate=N/A speed=18.7x    frame=14592 fps=448 q=-0.0 size=N/A time=00:10:08.60 bitrate=N/A speed=18.7x    frame=14843 fps=449 q=-0.0 size=N/A time=00:10:19.07 bitrate=N/A speed=18.7x    frame=15096 fps=450 q=-0.0 size=N/A time=00:10:29.62 bitrate=N/A speed=18.7x    frame=15325 fps=449 q=-0.0 size=N/A time=00:10:39.18 bitrate=N/A speed=18.7x    frame=15578 fps=450 q=-0.0 size=N/A time=00:10:49.73 bitrate=N/A speed=18.8x    frame=15851 fps=451 q=-0.0 size=N/A time=00:11:01.11 bitrate=N/A speed=18.8x    frame=16084 fps=451 q=-0.0 size=N/A time=00:11:10.83 bitrate=N/A speed=18.8x    frame=16318 fps=451 q=-0.0 size=N/A time=00:11:20.59 bitrate=N/A speed=18.8x    frame=16567 fps=451 q=-0.0 size=N/A time=00:11:30.98 bitrate=N/A speed=18.8x    frame=16818 fps=452 q=-0.0 size=N/A time=00:11:41.45 bitrate=N/A speed=18.8x    frame=17072 fps=452 q=-0.0 size=N/A time=00:11:52.04 bitrate=N/A speed=18.9x    frame=17341 fps=453 q=-0.0 size=N/A time=00:12:03.26 bitrate=N/A speed=18.9x    frame=17580 fps=453 q=-0.0 size=N/A time=00:12:13.23 bitrate=N/A speed=18.9x    frame=17826 fps=454 q=-0.0 size=N/A time=00:12:23.49 bitrate=N/A speed=18.9x    frame=18072 fps=454 q=-0.0 size=N/A time=00:12:33.75 bitrate=N/A speed=18.9x    frame=18319 fps=454 q=-0.0 size=N/A time=00:12:44.05 bitrate=N/A speed=  19x    frame=18523 fps=454 q=-0.0 size=N/A time=00:12:52.56 bitrate=N/A speed=18.9x    frame=18770 fps=454 q=-0.0 size=N/A time=00:13:02.86 bitrate=N/A speed=18.9x    frame=19008 fps=454 q=-0.0 size=N/A time=00:13:12.79 bitrate=N/A speed=18.9x    frame=19258 fps=454 q=-0.0 size=N/A time=00:13:23.21 bitrate=N/A speed=  19x    frame=19504 fps=455 q=-0.0 size=N/A time=00:13:33.47 bitrate=N/A speed=  19x    frame=19751 fps=455 q=-0.0 size=N/A time=00:13:43.78 bitrate=N/A speed=  19x    frame=20013 fps=456 q=-0.0 size=N/A time=00:13:54.70 bitrate=N/A speed=  19x    frame=20281 fps=456 q=-0.0 size=N/A time=00:14:05.88 bitrate=N/A speed=  19x    frame=20532 fps=457 q=-0.0 size=N/A time=00:14:16.35 bitrate=N/A speed=19.1x    frame=20783 fps=457 q=-0.0 size=N/A time=00:14:26.82 bitrate=N/A speed=19.1x    frame=21042 fps=458 q=-0.0 size=N/A time=00:14:37.62 bitrate=N/A speed=19.1x    frame=21295 fps=458 q=-0.0 size=N/A time=00:14:48.17 bitrate=N/A speed=19.1x    frame=21550 fps=458 q=-0.0 size=N/A time=00:14:58.81 bitrate=N/A speed=19.1x    frame=21789 fps=458 q=-0.0 size=N/A time=00:15:08.78 bitrate=N/A speed=19.1x    frame=22029 fps=458 q=-0.0 size=N/A time=00:15:18.79 bitrate=N/A speed=19.1x    frame=22271 fps=459 q=-0.0 size=N/A time=00:15:28.88 bitrate=N/A speed=19.1x    frame=22523 fps=459 q=-0.0 size=N/A time=00:15:39.39 bitrate=N/A speed=19.1x    frame=22771 fps=459 q=-0.0 size=N/A time=00:15:49.74 bitrate=N/A speed=19.1x    frame=23014 fps=459 q=-0.0 size=N/A time=00:15:59.87 bitrate=N/A speed=19.2x    frame=23240 fps=459 q=-0.0 size=N/A time=00:16:09.30 bitrate=N/A speed=19.1x    frame=23479 fps=459 q=-0.0 size=N/A time=00:16:19.26 bitrate=N/A speed=19.1x    frame=23719 fps=459 q=-0.0 size=N/A time=00:16:29.27 bitrate=N/A speed=19.1x    frame=23944 fps=459 q=-0.0 size=N/A time=00:16:38.66 bitrate=N/A speed=19.1x    frame=24210 fps=459 q=-0.0 size=N/A time=00:16:49.75 bitrate=N/A speed=19.2x    frame=24433 fps=459 q=-0.0 size=N/A time=00:16:59.05 bitrate=N/A speed=19.2x    frame=24660 fps=459 q=-0.0 size=N/A time=00:17:08.52 bitrate=N/A speed=19.1x    frame=24913 fps=459 q=-0.0 size=N/A time=00:17:19.07 bitrate=N/A speed=19.2x    frame=25111 fps=459 q=-0.0 size=N/A time=00:17:27.33 bitrate=N/A speed=19.1x    frame=25357 fps=459 q=-0.0 size=N/A time=00:17:37.59 bitrate=N/A speed=19.1x    frame=25578 fps=459 q=-0.0 size=N/A time=00:17:46.81 bitrate=N/A speed=19.1x    frame=25815 fps=459 q=-0.0 size=N/A time=00:17:56.70 bitrate=N/A speed=19.1x    frame=26042 fps=458 q=-0.0 size=N/A time=00:18:06.16 bitrate=N/A speed=19.1x    frame=26299 fps=459 q=-0.0 size=N/A time=00:18:16.88 bitrate=N/A speed=19.1x    frame=26548 fps=459 q=-0.0 size=N/A time=00:18:27.27 bitrate=N/A speed=19.1x    frame=26802 fps=459 q=-0.0 size=N/A time=00:18:37.86 bitrate=N/A speed=19.2x    frame=27058 fps=460 q=-0.0 size=N/A time=00:18:48.54 bitrate=N/A speed=19.2x    frame=27297 fps=460 q=-0.0 size=N/A time=00:18:58.51 bitrate=N/A speed=19.2x    frame=27509 fps=459 q=-0.0 size=N/A time=00:19:07.35 bitrate=N/A speed=19.2x    frame=27701 fps=458 q=-0.0 size=N/A time=00:19:15.36 bitrate=N/A speed=19.1x    frame=27938 fps=458 q=-0.0 size=N/A time=00:19:25.24 bitrate=N/A speed=19.1x    frame=28190 fps=459 q=-0.0 size=N/A time=00:19:35.75 bitrate=N/A speed=19.1x    frame=28436 fps=459 q=-0.0 size=N/A time=00:19:46.01 bitrate=N/A speed=19.1x    frame=28659 fps=459 q=-0.0 size=N/A time=00:19:55.31 bitrate=N/A speed=19.1x    frame=28917 fps=459 q=-0.0 size=N/A time=00:20:06.07 bitrate=N/A speed=19.1x    frame=29171 fps=459 q=-0.0 size=N/A time=00:20:16.67 bitrate=N/A speed=19.2x    frame=29437 fps=460 q=-0.0 size=N/A time=00:20:27.76 bitrate=N/A speed=19.2x    frame=29682 fps=460 q=-0.0 size=N/A time=00:20:37.98 bitrate=N/A speed=19.2x    frame=29941 fps=460 q=-0.0 size=N/A time=00:20:48.78 bitrate=N/A speed=19.2x    frame=30201 fps=461 q=-0.0 size=N/A time=00:20:59.63 bitrate=N/A speed=19.2x    frame=30459 fps=461 q=-0.0 size=N/A time=00:21:10.39 bitrate=N/A speed=19.2x    frame=30713 fps=461 q=-0.0 size=N/A time=00:21:20.98 bitrate=N/A speed=19.2x    frame=30966 fps=461 q=-0.0 size=N/A time=00:21:31.54 bitrate=N/A speed=19.2x    frame=31222 fps=462 q=-0.0 size=N/A time=00:21:42.21 bitrate=N/A speed=19.3x    frame=31473 fps=462 q=-0.0 size=N/A time=00:21:52.68 bitrate=N/A speed=19.3x    frame=31725 fps=462 q=-0.0 size=N/A time=00:22:03.19 bitrate=N/A speed=19.3x    frame=31949 fps=462 q=-0.0 size=N/A time=00:22:12.53 bitrate=N/A speed=19.3x    frame=32183 fps=462 q=-0.0 size=N/A time=00:22:22.29 bitrate=N/A speed=19.3x    frame=32418 fps=462 q=-0.0 size=N/A time=00:22:32.10 bitrate=N/A speed=19.3x    frame=32673 fps=462 q=-0.0 size=N/A time=00:22:42.73 bitrate=N/A speed=19.3x    frame=32936 fps=462 q=-0.0 size=N/A time=00:22:53.70 bitrate=N/A speed=19.3x    frame=33193 fps=462 q=-0.0 size=N/A time=00:23:04.42 bitrate=N/A speed=19.3x    frame=33439 fps=463 q=-0.0 size=N/A time=00:23:14.68 bitrate=N/A speed=19.3x    frame=33678 fps=463 q=-0.0 size=N/A time=00:23:24.65 bitrate=N/A speed=19.3x    frame=33880 fps=462 q=-0.0 size=N/A time=00:23:33.07 bitrate=N/A speed=19.3x    frame=34079 fps=462 q=-0.0 size=N/A time=00:23:41.37 bitrate=N/A speed=19.3x    frame=34233 fps=460 q=-0.0 size=N/A time=00:23:47.80 bitrate=N/A speed=19.2x    frame=34417 fps=460 q=-0.0 size=N/A time=00:23:55.47 bitrate=N/A speed=19.2x    frame=34613 fps=459 q=-0.0 size=N/A time=00:24:03.65 bitrate=N/A speed=19.2x    frame=34812 fps=459 q=-0.0 size=N/A time=00:24:11.95 bitrate=N/A speed=19.1x    frame=35027 fps=458 q=-0.0 size=N/A time=00:24:20.91 bitrate=N/A speed=19.1x    frame=35215 fps=458 q=-0.0 size=N/A time=00:24:28.75 bitrate=N/A speed=19.1x    frame=35426 fps=457 q=-0.0 size=N/A time=00:24:37.55 bitrate=N/A speed=19.1x    frame=35635 fps=457 q=-0.0 size=N/A time=00:24:46.27 bitrate=N/A speed=19.1x    frame=35811 fps=456 q=-0.0 size=N/A time=00:24:53.61 bitrate=N/A speed=  19x    frame=36023 fps=456 q=-0.0 size=N/A time=00:25:02.45 bitrate=N/A speed=  19x    [Parsed_ssim_10 @ 00000193dfe96b80] SSIM Y:0.993584 (21.927354) U:0.993472 (21.851909) V:0.993345 (21.768799) All:0.993525 (21.887935)
[out#0/null @ 00000193d3156e00] video:15520KiB audio:282692KiB subtitle:0KiB other streams:0KiB global headers:0KiB muxing overhead: unknown
frame=36120 fps=456 q=-0.0 Lsize=N/A time=00:25:06.50 bitrate=N/A speed=  19x    
